<svg id="svg" version="1.1" xmlns="http://www.w3.org/2000/svg" xmlns:xlink="http://www.w3.org/1999/xlink" width="400" height="400" viewBox="0, 0, 400,400"><g id="svgg"><path id="path0" d="M174.414 143.750 L 84.570 143.945 82.422 144.966 C 79.689 146.264,77.514 148.439,76.216 151.172 L 75.195 153.320 75.195 218.750 L 75.195 284.180 76.278 286.383 C 77.540 288.955,80.157 291.515,82.744 292.711 L 84.570 293.555 200.000 293.555 L 315.430 293.555 317.256 292.711 C 319.843 291.515,322.460 288.955,323.722 286.383 L 324.805 284.180 324.805 218.945 C 324.805 155.583,324.783 153.655,324.056 151.769 C 322.586 147.959,318.270 144.508,314.260 143.937 C 311.826 143.591,272.080 143.538,174.414 143.750 M161.170 169.863 C 210.187 182.253,213.612 250.339,166.016 266.167 C 120.639 281.256,82.131 230.657,108.525 190.625 C 119.434 174.078,142.250 165.081,161.170 169.863 M292.612 176.219 C 295.386 177.519,297.481 179.614,298.781 182.388 L 299.805 184.570 299.805 203.320 L 299.805 222.070 298.849 224.013 C 297.629 226.491,295.241 228.879,292.763 230.099 L 290.820 231.055 259.375 231.055 L 227.930 231.055 225.987 230.099 C 223.509 228.879,221.121 226.491,219.901 224.013 L 218.945 222.070 218.833 204.156 C 218.697 182.537,219.009 180.879,223.851 177.523 C 227.615 174.915,226.252 175.006,259.961 175.106 L 290.430 175.195 292.612 176.219 M231.534 250.598 C 236.154 252.528,237.457 255.116,237.433 262.305 C 237.404 270.722,234.268 275.000,228.125 275.000 C 221.941 275.000,218.835 270.702,218.810 262.109 C 218.781 252.695,224.396 247.616,231.534 250.598 M262.784 250.598 C 267.404 252.528,268.707 255.116,268.683 262.305 C 268.654 270.722,265.518 275.000,259.375 275.000 C 253.191 275.000,250.085 270.702,250.060 262.109 C 250.031 252.695,255.646 247.616,262.784 250.598 M294.034 250.598 C 298.654 252.528,299.957 255.116,299.933 262.305 C 299.904 270.722,296.768 275.000,290.625 275.000 C 284.441 275.000,281.335 270.702,281.310 262.109 C 281.281 252.695,286.896 247.616,294.034 250.598 " stroke="none" fill="#f3cb84" fill-rule="evenodd"></path><path id="path1" d="M145.313 168.972 C 144.775 169.066,143.018 169.337,141.406 169.574 C 114.503 173.534,95.299 201.805,101.121 228.880 C 109.547 268.064,158.008 282.131,185.768 253.451 C 213.240 225.069,198.377 177.453,159.626 169.699 C 156.835 169.141,147.153 168.649,145.313 168.972 M225.779 250.342 C 218.643 252.679,216.497 260.708,221.641 265.821 C 230.251 274.378,243.075 261.893,234.819 252.992 C 232.738 250.749,228.411 249.480,225.779 250.342 M257.029 250.342 C 249.893 252.679,247.747 260.708,252.891 265.821 C 261.501 274.378,274.325 261.893,266.069 252.992 C 263.988 250.749,259.661 249.480,257.029 250.342 M288.279 250.342 C 281.143 252.679,278.997 260.708,284.141 265.821 C 292.751 274.378,305.575 261.893,297.319 252.992 C 295.238 250.749,290.911 249.480,288.279 250.342 " stroke="none" fill="#4b5b71" fill-rule="evenodd"></path><path id="path2" d="M181.836 0.616 C 72.411 10.420,-8.921 107.498,0.555 216.992 C 10.763 334.946,119.750 418.106,236.271 396.851 C 337.617 378.364,408.397 285.323,399.398 182.422 C 389.754 72.158,292.300 -9.280,181.836 0.616 M107.191 89.067 C 112.891 90.582,133.489 96.035,145.508 99.211 C 148.730 100.062,186.924 110.167,230.382 121.667 C 273.841 133.166,311.180 143.016,313.360 143.555 C 319.554 145.088,322.544 147.372,324.220 151.851 C 325.002 153.940,325.008 154.579,324.907 219.265 L 324.805 284.570 323.849 286.513 C 322.629 288.991,320.241 291.379,317.763 292.599 L 315.820 293.555 200.000 293.555 L 84.180 293.555 82.237 292.599 C 79.759 291.379,77.371 288.991,76.151 286.513 L 75.195 284.570 75.093 219.265 L 74.991 153.960 75.837 151.699 C 76.977 148.652,79.897 145.729,82.937 144.591 L 85.186 143.750 174.526 143.726 L 263.867 143.702 180.664 121.656 C 130.158 108.273,97.077 99.327,96.484 98.890 C 92.680 96.087,92.852 91.079,96.844 88.388 C 98.696 87.141,100.353 87.249,107.191 89.067 " stroke="none" fill="#c25b5b" fill-rule="evenodd"></path><path id="path3" d="M98.185 87.914 C 92.630 89.579,92.611 97.822,98.158 99.561 C 98.849 99.777,136.681 109.810,182.229 121.855 L 265.045 143.756 288.647 143.655 L 312.250 143.555 231.223 122.112 C 186.658 110.318,139.385 97.810,126.172 94.315 C 99.920 87.371,99.965 87.381,98.185 87.914 M227.461 175.723 C 219.331 178.551,218.685 180.678,218.833 204.156 L 218.945 222.070 219.901 224.013 C 221.121 226.491,223.509 228.879,225.987 230.099 L 227.930 231.055 259.375 231.055 L 290.820 231.055 292.763 230.099 C 295.241 228.879,297.629 226.491,298.849 224.013 L 299.805 222.070 299.805 203.320 L 299.805 184.570 298.781 182.388 C 297.481 179.614,295.386 177.519,292.612 176.219 L 290.430 175.195 259.961 175.106 C 231.437 175.022,229.363 175.061,227.461 175.723 " stroke="none" fill="#edede7" fill-rule="evenodd"></path><path id="path4" d="M321.094 147.461 C 321.823 148.213,322.507 148.828,322.614 148.828 C 322.722 148.828,322.213 148.213,321.484 147.461 C 320.756 146.709,320.071 146.094,319.964 146.094 C 319.857 146.094,320.365 146.709,321.094 147.461 M114.442 183.496 L 111.914 186.133 114.551 183.605 C 116.001 182.215,117.188 181.028,117.188 180.968 C 117.188 180.681,116.790 181.047,114.442 183.496 M185.156 183.398 C 186.540 184.795,187.761 185.938,187.868 185.938 C 187.975 185.938,186.931 184.795,185.547 183.398 C 184.163 182.002,182.942 180.859,182.835 180.859 C 182.728 180.859,183.772 182.002,185.156 183.398 M114.453 254.102 C 115.620 255.283,116.663 256.250,116.770 256.250 C 116.878 256.250,116.011 255.283,114.844 254.102 C 113.677 252.920,112.634 251.953,112.527 251.953 C 112.419 251.953,113.286 252.920,114.453 254.102 M185.143 254.199 L 183.008 256.445 185.254 254.310 C 187.341 252.327,187.679 251.953,187.389 251.953 C 187.328 251.953,186.317 252.964,185.143 254.199 M219.004 263.350 C 217.530 268.853,222.343 275.000,228.125 275.000 C 232.960 275.000,237.533 270.412,237.469 265.625 C 237.445 263.831,236.804 261.516,236.746 263.014 C 236.701 264.177,232.814 267.742,231.009 268.275 C 226.660 269.560,221.703 267.512,219.837 263.660 C 219.261 262.472,219.241 262.464,219.004 263.350 M250.254 263.350 C 248.780 268.853,253.593 275.000,259.375 275.000 C 264.210 275.000,268.783 270.412,268.719 265.625 C 268.695 263.831,268.054 261.516,267.996 263.014 C 267.951 264.177,264.064 267.742,262.259 268.275 C 257.910 269.560,252.953 267.512,251.087 263.660 C 250.511 262.472,250.491 262.464,250.254 263.350 M281.504 263.350 C 280.030 268.853,284.843 275.000,290.625 275.000 C 295.460 275.000,300.033 270.412,299.969 265.625 C 299.945 263.831,299.304 261.516,299.246 263.014 C 299.201 264.177,295.314 267.742,293.509 268.275 C 289.160 269.560,284.203 267.512,282.337 263.660 C 281.761 262.472,281.741 262.464,281.504 263.350 M144.629 268.629 C 145.005 268.727,145.620 268.727,145.996 268.629 C 146.372 268.530,146.064 268.450,145.313 268.450 C 144.561 268.450,144.253 268.530,144.629 268.629 M154.004 268.629 C 154.380 268.727,154.995 268.727,155.371 268.629 C 155.747 268.530,155.439 268.450,154.688 268.450 C 153.936 268.450,153.628 268.530,154.004 268.629 " stroke="none" fill="#caaa75" fill-rule="evenodd"></path></g></svg>